<svg id="Layer_1" enable-background="new 0 0 512 512" height="512" viewBox="0 0 512 512" width="512" xmlns="http://www.w3.org/2000/svg"><g><path d="m323.5 38.5h-30l30 45v45h30v-60c0-16.569-13.431-30-30-30z" fill="#233952"/><path d="m293.5 38.5h-105c-16.569 0-30 13.431-30 30v60h30v-45h135v-15c0-16.569-13.431-30-30-30z" fill="#3d5168"/><path d="m429.5 323.5v150h30c16.569 0 30-13.431 30-30v-120z" fill="#233952"/><path d="m399.5 323.5v150h30c16.569 0 30-13.431 30-30v-120z" fill="#3d5168"/><path d="m369.5 323.5v150h30c16.569 0 30-13.431 30-30v-120z" fill="#57697d"/><path d="m22.5 323.5v120c0 16.569 13.431 30 30 30h60v-150z" fill="#3d5168"/><path d="m399.5 443.5v-120h-317v120c0 16.569 13.432 30 30 30h257c16.569 0 30-13.431 30-30z" fill="#728192"/><path d="m474.5 113.5h-30v240h30c16.569 0 30-13.431 30-30v-180c0-16.569-13.431-30-30-30z" fill="#3d5168"/><path d="m474.5 323.5v-180c0-16.569-13.431-30-30-30h-407c-16.568 0-30 13.431-30 30v180c0 16.569 13.432 30 30 30h173.5l45-15 45 15h143.5c16.569 0 30-13.431 30-30z" fill="#57697d"/><path d="m271 248.5-45 90h75v-90z" fill="#233952"/><path d="m211 248.5h60v90h-60z" fill="#3d5168"/><path d="m256 338.5v105c24.853 0 45-20.147 45-45v-60z" fill="#ffb739"/><path d="m271 398.5v-60h-60v60c0 24.853 20.147 45 45 45 8.284 0 15-20.147 15-45z" fill="#ffd17e"/><path d="m271 323.5v30h30c8.284 0 15-6.716 15-15s-6.716-15-15-15z" fill="#ff9441"/><path d="m196 338.5c0 8.284 6.716 15 15 15h60c8.284 0 15-6.716 15-15s-6.716-15-15-15h-60c-8.284 0-15 6.716-15 15z" fill="#ffb739"/><circle cx="256" cy="398.5" fill="#ff9441" r="15"/><path d="m474.5 106h-113.5v-37.5c0-20.678-16.822-37.5-37.5-37.5h-135c-20.678 0-37.5 16.822-37.5 37.5v45c0 4.143 3.358 7.5 7.5 7.5h316c12.406 0 22.5 10.094 22.5 22.5v180c0 12.406-10.094 22.5-22.5 22.5h-152.3c.833-2.349 1.3-4.869 1.3-7.5 0-9.777-6.271-18.114-15-21.21v-68.79c0-4.143-3.357-7.5-7.5-7.5h-90c-4.142 0-7.5 3.357-7.5 7.5v68.79c-8.729 3.096-15 11.433-15 21.21 0 2.631.467 5.151 1.3 7.5h-152.3c-12.407 0-22.5-10.094-22.5-22.5v-180c0-12.406 10.093-22.5 22.5-22.5h91c4.142 0 7.5-3.357 7.5-7.5s-3.358-7.5-7.5-7.5h-91c-20.678 0-37.5 16.822-37.5 37.5v180c0 12.242 5.898 23.131 15 29.98v90.02c0 20.678 16.822 37.5 37.5 37.5h407c20.678 0 37.5-16.822 37.5-37.5v-90.02c9.102-6.848 15-17.737 15-29.98v-180c0-20.678-16.822-37.5-37.5-37.5zm-158.5 0h-120v-15h120zm30 0h-15v-22.5c0-4.143-3.357-7.5-7.5-7.5h-135c-4.142 0-7.5 3.357-7.5 7.5v22.5h-15v-37.5c0-12.406 10.093-22.5 22.5-22.5h135c12.406 0 22.5 10.094 22.5 22.5zm-52.5 150v60h-75v-60zm-90 82.5c0-4.136 3.364-7.5 7.5-7.5h90c4.136 0 7.5 3.364 7.5 7.5s-3.364 7.5-7.5 7.5h-90c-4.136 0-7.5-3.364-7.5-7.5zm15 22.5h75v37.5c0 20.678-16.822 37.5-37.5 37.5s-37.5-16.822-37.5-37.5zm-188.5 82.5v-83.255c2.424.494 4.932.755 7.5.755h37.5v82.5c0 8.436 2.801 16.228 7.52 22.5h-30.02c-12.407 0-22.5-10.094-22.5-22.5zm82.5 22.5c-12.407 0-22.5-10.094-22.5-22.5v-82.5h113.5v37.5c0 28.948 23.551 52.5 52.5 52.5 28.948 0 52.5-23.552 52.5-52.5v-37.5h113.5v82.5c0 12.406-10.094 22.5-22.5 22.5zm369.5-22.5c0 12.406-10.094 22.5-22.5 22.5h-30.02c4.719-6.272 7.52-14.064 7.52-22.5v-82.5h37.5c2.568 0 5.076-.261 7.5-.755z"/><path d="m256 421c12.406 0 22.5-10.094 22.5-22.5s-10.094-22.5-22.5-22.5c-12.407 0-22.5 10.094-22.5 22.5s10.093 22.5 22.5 22.5zm0-30c4.136 0 7.5 3.364 7.5 7.5s-3.364 7.5-7.5 7.5-7.5-3.364-7.5-7.5 3.364-7.5 7.5-7.5z"/></g></svg>